<?xml version="1.0"?><svg width="518.54486" height="454.48087" xmlns="http://www.w3.org/2000/svg">
 <title>Severe water pollution</title>

 <metadata id="metadata7">image/svg+xml</metadata>
 <g>
  <title>Layer 1</title>
  <g id="svg_12">
   <!-- Created with SVG-edit - http://svg-edit.googlecode.com/ -->
   <title>Base Aspectos Ambientales</title>
   <g transform="matrix(0.920904, 0, 0, 0.920904, 2.27258, 3.66135)" id="svg_6">
    <title>Layer 1</title>
    <!-- Created with SVG-edit - http://svg-edit.googlecode.com/ -->
    <metadata id="svg_11">image/svg+xml</metadata>
    <metadata id="svg_10">image/svg+xml</metadata>
    <!-- Created with SVG-edit - http://svg-edit.googlecode.com/ -->
    <circle id="svg_9" r="95.203125" cy="147.999999" cx="330.263579" stroke-width="2" stroke="#000000" fill="#ffffff" transform="matrix(2.46292, 0, 0, 2.46292, -568.308, -125.782)"/>
    <circle id="svg_8" r="85.867188" cy="148" cx="330.263581" stroke-width="4.92584" fill="#ff7f00" transform="matrix(2.46292, 0, 0, 2.46292, -568.308, -125.782)"/>
    <!-- Created with SVG-edit - http://svg-edit.googlecode.com/ -->
   </g>
  </g>
  <path id="rect2985" d="m107.448769,109.437859l75.451729,0c7.96077,2.989159 9.901917,59.913353 0,56.300179l-75.451729,0l0,-56.300179z" stroke-width="6" fill-rule="nonzero" fill="#000000"/>
  <path id="path2991" d="m305.691742,285.838287l-57.568909,-0.829224l-37.353912,-0.829224c6.643723,-46.127762 25.27887,-98.893188 -37.178116,-133.917664l1.318359,-27.778717c138.782547,35.593063 98.864151,116.401886 130.782578,163.354828z" fill="#000000"/>
  <g id="g4407" transform="matrix(0.615241, 0, 0, 0.580448, -25.8725, 9.47595)">
   <path d="m431.608124,415.726135c-16.54248,-148.819336 -83.138031,-154.609558 -93.082153,-178.200378c39.972412,34.697388 84.498291,43.204102 93.082153,178.200378z" id="path2991-2-88-4-5" fill="#ff7f00"/>
   <path d="m481.965973,397.890808c-25.069824,-155.146454 -125.994202,-161.182861 -141.064331,-185.776672c60.577515,36.172668 128.055664,45.041016 141.064331,185.776672z" id="path2991-2-88" fill="#ff7f00"/>
   <path d="m506.474487,397.701904c-29.533478,-164.980301 -148.427399,-171.399277 -166.180725,-197.551941c69.309784,37.957214 145.335785,46.529785 166.180725,197.551941z" id="path2991-2-88-7" fill="#ff7f00"/>
   <path d="m462.165192,415.978699c-21.47937,-158.520813 -107.949493,-164.688477 -120.861267,-189.817184c51.901672,36.959274 109.715698,46.020554 120.861267,189.817184z" id="path2991-2-88-4" fill="#ff7f00"/>
  </g>
  <path d="m372.604736,308.63562c-6.008148,0 -11.883362,-1.390991 -17.051819,-3.732117c-5.323822,-2.496552 -11.33194,-3.9328 -17.605865,-3.9328c-6.206024,0 -12.214142,1.436249 -17.538025,3.9328c-5.236298,2.341125 -11.043671,3.732117 -17.119659,3.732117s-11.860687,-1.390991 -17.051727,-3.732117c-5.3013,-2.496552 -11.309448,-3.9328 -17.605927,-3.9328c-6.206024,0 -12.214172,1.436249 -17.583313,3.9328c-5.19101,2.341125 -10.978546,3.732117 -17.051727,3.732117s-11.883331,-1.390991 -17.074371,-3.732117c-5.346527,-2.496552 -11.332031,-3.9328 -17.605927,-3.9328c-6.251282,0 -12.214142,1.436249 -17.560699,3.9328c-5.213623,2.341125 -11.020996,3.732117 -17.096954,3.732117s-11.860748,-1.390991 -17.074371,-3.732117c-5.323929,-2.496552 -11.332031,-3.9328 -17.560699,-3.9328c-6.296494,0 -12.259384,1.436249 -17.583282,3.9328c-5.213661,2.341125 -11.001236,3.732117 -17.074387,3.732117l0,-25.621429c6.073151,0 11.860741,-1.3685 17.074387,-3.709473c5.323898,-2.428711 11.286789,-3.865021 17.583282,-3.865021c6.228668,0 12.236771,1.43631 17.560699,3.865021c5.213623,2.340973 11.00119,3.709473 17.074371,3.709473s11.883331,-1.3685 17.096954,-3.709473c5.346558,-2.428711 11.309418,-3.865021 17.560699,-3.865021c6.273895,0 12.259399,1.43631 17.605927,3.865021c5.19104,2.340973 11.001221,3.709473 17.074371,3.709473s11.860718,-1.3685 17.051727,-3.709473c5.366333,-2.428711 11.374481,-3.865021 17.583313,-3.865021c6.296478,0 12.304626,1.43631 17.605927,3.865021c5.19104,2.340973 10.978577,3.709473 17.051727,3.709473s11.883362,-1.3685 17.119659,-3.709473c5.323883,-2.428711 11.332001,-3.865021 17.538025,-3.865021c6.273926,0 12.282043,1.43631 17.605865,3.865021c5.168457,2.340973 11.043671,3.709473 17.051819,3.709473l0,25.621429z" fill="#000000" id="svg_16"/>
  <path d="m372.604736,344.63562c-6.008148,0 -11.883362,-1.390991 -17.051819,-3.732117c-5.323822,-2.496552 -11.33194,-3.9328 -17.605865,-3.9328c-6.206024,0 -12.214142,1.436249 -17.538025,3.9328c-5.236298,2.341125 -11.043671,3.732117 -17.119659,3.732117s-11.860687,-1.390991 -17.051727,-3.732117c-5.3013,-2.496552 -11.309448,-3.9328 -17.605927,-3.9328c-6.206024,0 -12.214172,1.436249 -17.583313,3.9328c-5.19101,2.341125 -10.978546,3.732117 -17.051727,3.732117s-11.883331,-1.390991 -17.074371,-3.732117c-5.346527,-2.496552 -11.332031,-3.9328 -17.605927,-3.9328c-6.251282,0 -12.214142,1.436249 -17.560699,3.9328c-5.213623,2.341125 -11.020996,3.732117 -17.096954,3.732117s-11.860748,-1.390991 -17.074371,-3.732117c-5.323929,-2.496552 -11.332031,-3.9328 -17.560699,-3.9328c-6.296494,0 -12.259384,1.436249 -17.583282,3.9328c-5.213661,2.341125 -11.001236,3.732117 -17.074387,3.732117l0,-25.621429c6.073151,0 11.860741,-1.3685 17.074387,-3.709473c5.323898,-2.428711 11.286789,-3.865021 17.583282,-3.865021c6.228668,0 12.236771,1.43631 17.560699,3.865021c5.213623,2.340973 11.00119,3.709473 17.074371,3.709473s11.883331,-1.3685 17.096954,-3.709473c5.346558,-2.428711 11.309418,-3.865021 17.560699,-3.865021c6.273895,0 12.259399,1.43631 17.605927,3.865021c5.19104,2.340973 11.001221,3.709473 17.074371,3.709473s11.860718,-1.3685 17.051727,-3.709473c5.366333,-2.428711 11.374481,-3.865021 17.583313,-3.865021c6.296478,0 12.304626,1.43631 17.605927,3.865021c5.19104,2.340973 10.978577,3.709473 17.051727,3.709473s11.883362,-1.3685 17.119659,-3.709473c5.323883,-2.428711 11.332001,-3.865021 17.538025,-3.865021c6.273926,0 12.282043,1.43631 17.605865,3.865021c5.168457,2.340973 11.043671,3.709473 17.051819,3.709473l0,25.621429z" fill="#000000" id="svg_20"/>
 </g>
</svg>